<?xml version="1.0" standalone="no"?>
<!DOCTYPE svg PUBLIC "-//W3C//DTD SVG 20010904//EN"
 "http://www.w3.org/TR/2001/REC-SVG-20010904/DTD/svg10.dtd">
<svg version="1.0" xmlns="http://www.w3.org/2000/svg"
 width="254.000000pt" height="254.000000pt" viewBox="0 0 254.000000 254.000000"
 preserveAspectRatio="xMidYMid meet">
<metadata>
Created by potrace 1.11, written by Peter Selinger 2001-2013
</metadata>
<g transform="translate(0.000000,254.000000) scale(0.100000,-0.100000)"
fill="#000000" stroke="none">
<path d="M1275 2094 c-247 -59 -456 -241 -585 -508 -90 -186 -124 -328 -124
-516 0 -106 3 -134 23 -182 33 -85 105 -138 189 -138 19 0 22 -5 22 -37 1 -93
73 -172 178 -194 63 -13 187 0 250 26 31 14 34 13 95 -29 202 -141 366 -146
462 -16 26 35 61 128 52 137 -3 3 -31 -3 -61 -12 -71 -22 -175 -16 -266 15
-36 12 -67 23 -69 26 -2 2 25 35 61 73 158 170 279 411 329 653 27 135 23 321
-10 413 -46 126 -134 221 -248 266 -45 17 -82 23 -168 25 -60 2 -119 1 -130
-2z m221 -133 c49 -22 98 -79 120 -140 22 -62 29 -230 14 -333 -39 -271 -154
-556 -282 -702 l-43 -48 -90 45 c-119 59 -153 69 -234 69 -78 0 -119 -17 -153
-62 -27 -38 -32 -30 -48 75 -37 240 59 623 213 850 52 76 129 159 186 198 92
63 235 85 317 48z m-477 -1236 c23 -8 62 -28 87 -46 53 -36 49 -42 -32 -59
-93 -20 -174 15 -174 76 0 43 48 55 119 29z"/>
</g>
</svg>
